Coordinates
version=1
nRows=7
nColumns=46
inDegrees=yes

Units are S.I. units (second, meters, Newtons, ...)
Angles are in degrees.

endheader
time	pelvis_tilt	pelvis_list	pelvis_rotation	pelvis_tx	pelvis_ty	pelvis_tz	bb_angle	bb_tx	bb_ty	bb_tz	hip_flexion_r	hip_adduction_r	hip_rotation_r	knee_angle_r	knee_angle_r_beta	ankle_angle_r	subtalar_angle_r	mtp_angle_r	crank_angle_r	hip_flexion_l	hip_adduction_l	hip_rotation_l	knee_angle_l	knee_angle_l_beta	ankle_angle_l	subtalar_angle_l	mtp_angle_l	crank_angle_l	lumbar_extension	lumbar_bending	lumbar_rotation	arm_flex_r	arm_add_r	arm_rot_r	elbow_flex_r	pro_sup_r	wrist_flex_r	wrist_dev_r	arm_flex_l	arm_add_l	arm_rot_l	elbow_flex_l	pro_sup_l	wrist_flex_l	wrist_dev_l
      2.50500000	    -34.47224494	      3.68590293	      9.49785871	      0.17082820	      1.10706457	     -0.26025524	      0.00000000	      0.50000000	      0.00000000	      0.25000000	     63.46926278	    -11.92336045	      0.25079354	     64.99337407	      1.13434837	     10.14357894	     -7.19263068	      0.00000000	      0.00000000	     95.99293012	     -0.82180343	     -4.67074903	     84.17845557	      1.46919121	     26.36116204	      2.07698417	      0.00000000	      0.00000000	    -40.25201101	      3.11233236	    -33.57151298	     69.32658255	      9.47632936	     29.07504530	     63.04917652	     46.98164858	      0.00000000	      0.00000000	     60.89262303	    -84.19243524	     38.43169788	    103.33480901	     52.20941146	      0.00000000	      0.00000000
      2.51000000	    -34.46861180	      3.28220254	      9.46444505	      0.17221468	      1.10748460	     -0.26059661	      0.00000000	      0.50000000	      0.00000000	      0.25000000	     63.25141617	    -11.72494231	     -0.10421748	     65.02098681	      1.13483030	     10.53410510	     -6.63274508	      0.00000000	      0.00000000	     95.90088897	     -0.80350755	     -4.23787051	     83.99152442	      1.46592864	     26.38326703	      2.37595883	      0.00000000	      0.00000000	    -40.38448883	      3.48066903	    -34.02234587	     69.45059931	      9.75143818	     30.09249056	     62.55244058	     47.09287788	      0.00000000	      0.00000000	     60.68412671	    -86.43525867	     38.96933852	    104.63093854	     52.63395400	      0.00000000	      0.00000000
      2.51500000	    -34.50308870	      3.22647324	      9.47473362	      0.17362713	      1.10810105	     -0.26095672	      0.00000000	      0.50000000	      0.00000000	      0.25000000	     63.11931963	    -11.75656513	     -0.15737554	     65.08359485	      1.13592302	     10.84095530	     -6.40866862	      0.00000000	      0.00000000	     95.67853272	     -0.73809209	     -4.24645844	     83.65574885	      1.46006826	     26.24066681	      2.16197749	      0.00000000	      0.00000000	    -40.41285064	      3.60433426	    -34.12715917	     69.27773728	      9.84884392	     30.23134397	     62.61181102	     47.11511361	      0.00000000	      0.00000000	     59.56233660	    -87.13468813	     38.25573630	    104.99244363	     52.61843892	      0.00000000	      0.00000000
      2.52000000	    -34.56189802	      3.19655051	      9.43494792	      0.17492335	      1.10875213	     -0.26122057	      0.00000000	      0.50000000	      0.00000000	      0.25000000	     63.01751370	    -11.73016738	     -0.11323297	     65.12837021	      1.13670450	     11.17709125	     -6.20413409	      0.00000000	      0.00000000	     95.47561112	     -0.67878383	     -4.21753229	     83.31254586	      1.45407823	     26.12941823	      1.93898435	      0.00000000	      0.00000000	    -40.46766905	      3.59478311	    -34.36674643	     69.19234842	     10.05617600	     30.41563953	     62.53610264	     47.12218416	      0.00000000	      0.00000000	     58.26829577	    -87.78951871	     37.35321842	    105.35405021	     52.54208669	      0.00000000	      0.00000000
      2.52500000	    -34.74979558	      3.07850554	      9.37065432	      0.17633748	      1.10914380	     -0.26144703	      0.00000000	      0.50000000	      0.00000000	      0.25000000	     63.02700826	    -11.65252570	     -0.14373832	     65.14710828	      1.13703154	     11.59241951	     -5.88775234	      0.00000000	      0.00000000	     95.41933482	     -0.69418961	     -4.13075905	     82.99645239	      1.44856136	     26.03251062	      1.90584889	      0.00000000	      0.00000000	    -40.28200749	      3.67759038	    -33.84500720	     68.75376815	      9.82461570	     29.90714691	     63.04221041	     47.12494408	      0.00000000	      0.00000000	     57.08852456	    -86.82098834	     36.00211727	    105.05437517	     52.37796162	      0.00000000	      0.00000000
      2.53000000	    -34.74809951	      2.98776686	      9.37098306	      0.17767732	      1.10982649	     -0.26183009	      0.00000000	      0.50000000	      0.00000000	      0.25000000	     62.83060077	    -11.66512954	     -0.23320461	     65.16704691	      1.13737953	     11.96587749	     -5.60504213	      0.00000000	      0.00000000	     95.17333233	     -0.60452178	     -4.05119892	     82.65993904	      1.44268810	     25.93814604	      1.79312234	      0.00000000	      0.00000000	    -40.37368264	      3.78846494	    -34.02795467	     68.74113902	      9.85728084	     30.43040463	     62.95470431	     47.18881427	      0.00000000	      0.00000000	     56.01080208	    -87.75513003	     35.63042843	    105.57293334	     52.46377133	      0.00000000	      0.00000000
      2.53500000	    -34.84165381	      2.90592843	      9.32381391	      0.17905653	      1.11035833	     -0.26217170	      0.00000000	      0.50000000	      0.00000000	      0.25000000	     62.73703805	    -11.64436992	     -0.28248997	     65.17836304	      1.13757704	     12.34136165	     -5.30192972	      0.00000000	      0.00000000	     95.01365492	     -0.56932161	     -3.96813015	     82.32617411	      1.43686280	     25.83649457	      1.70638417	      0.00000000	      0.00000000	    -40.31196211	      3.85646100	    -33.90257781	     68.53243380	      9.81700359	     30.42055071	     63.06766613	     47.18988087	      0.00000000	      0.00000000	     54.75901300	    -87.72156070	     34.66605032	    105.66788215	     52.36304397	      0.00000000	      0.00000000
